#!OML:ASF H:\Terrain\Patient Classification 1\Walking\steve\steve.ASF
:FULLY-SPECIFIED
:DEGREES
47
root 9.33999 15.5252 -22.0584 7.76961 -8.37815 2.32607
lowerback 2.20299 3.69386 -5.93416
upperback -2.54937 4.60639 -2.29909
thorax -4.15693 2.42577 0.652431
lowerneck -11.2657 -1.91037 -3.02856
upperneck 12.6255 -2.91724 5.81348
head 5.79827 -1.13216 2.08885
rclavicle 6.30644e-014 8.34896e-015
rhumerus -45.8886 5.68818 -93.9462
rradius 52.486
rwrist -17.766
rhand -27.7979 -39.9785
rfingers 7.12502
rthumb -1.19075 -69.9549
lclavicle 6.30644e-014 8.34896e-015
lhumerus -48.2458 31.7252 51.3151
lradius 6.58938
lwrist -36.7084
lhand -25.2635 -11.8928
lfingers 7.12502
lthumb 1.25708 18.0833
rfemur -11.128 5.04119 17.8033
rtibia 67.2197
rfoot 3.32193 -2.12298
rtoes -9.08938
lfemur -34.2078 4.07261 -24.5959
ltibia 40.703
lfoot -14.1843 -0.0423491
ltoes -6.2314
48
root 9.36107 15.5688 -21.7952 7.70242 -8.23501 2.39944
lowerback 2.21025 3.56497 -5.85402
upperback -2.58886 4.43675 -2.2623
thorax -4.18851 2.34117 0.656093
lowerneck -11.2709 -1.86814 -2.61689
upperneck 13.0828 -2.87371 5.2889
head 5.92731 -1.12466 1.86
rclavicle -2.18663e-015 1.19271e-015
rhumerus -46.2429 4.13171 -93.211
rradius 49.3767
rwrist -15.9496
rhand -27.5241 -40.5924
rfingers 7.12502
rthumb -0.926288 -70.5701
lclavicle -2.18663e-015 1.19271e-015
lhumerus -47.7558 32.8754 51.5339
lradius 7.63166
lwrist -37.5502
lhand -25.0963 -13.817
lfingers 7.12502
lthumb 1.41857 16.158
rfemur -13.2676 4.67938 17.8093
rtibia 68.5471
rfoot 0.715566 -1.65874
rtoes -4.30605
lfemur -32.8474 3.62074 -24.7926
ltibia 40.2409
lfoot -14.8462 0.42561
ltoes -8.20911
49
root 9.38325 15.6077 -21.5249 7.64461 -8.16082 2.62472
lowerback 2.13546 3.50479 -5.91472
upperback -2.64794 4.3594 -2.20199
thorax -4.213 2.30717 0.759129
lowerneck -11.3634 -1.8947 -2.61895
upperneck 13.7036 -2.89512 5.03127
head 6.13587 -1.14641 1.77797
rclavicle -2.05494e-014 1.39149e-014
rhumerus -46.6941 2.63752 -92.3019
rradius 46.4769
rwrist -14.4708
rhand -27.3617 -41.8295
rfingers 7.12502
rthumb -0.769386 -71.8078
lclavicle -2.05494e-014 1.39149e-014
lhumerus -47.3568 33.9282 51.9424
lradius 9.03301
lwrist -38.5638
lhand -24.9817 -14.9494
lfingers 7.12502
lthumb 1.52927 15.0249
rfemur -15.2789 4.41917 17.6536
rtibia 69.4836
rfoot -1.38117 -0.434475
rtoes 4.02933
lfemur -31.4113 3.2781 -25.2175
ltibia 39.6865
lfoot -15.6399 0.953725
ltoes -10.3032
50
root 9.40338 15.6323 -21.2613 7.45113 -8.08133 2.97215
lowerback 2.24773 3.40449 -6.08119
upperback -2.62276 4.2102 -2.21034
thorax -4.25382 2.23796 0.846014
lowerneck -11.4958 -1.79034 -2.61186
upperneck 14.0066 -2.7717 5.07196
head 6.24999 -1.07777 1.80103
rclavicle 2.71093e-014 -1.55052e-014
rhumerus -46.9371 1.1408 -91.3562
rradius 43.433
rwrist -12.8603
rhand -26.797 -40.9054
rfingers 7.12502
rthumb -0.223982 -70.885
lclavicle 2.71093e-014 -1.55052e-014
lhumerus -46.2965 35.3251 52.5295
lradius 9.53186
lwrist -39.0817
lhand -24.9038 -15.571
lfingers 7.12502
lthumb 1.60452 14.4027
rfemur -17.2412 4.19653 17.4467
rtibia 70.1403
rfoot -2.91054 1.11991
rtoes 5.93554
lfemur -29.7414 2.91626 -25.7005
ltibia 38.9786
lfoot -16.3881 0.85262
ltoes -9.68902
51
root 9.41965 15.6592 -20.9961 7.08985 -8.24365 3.20798
lowerback 2.45504 3.33153 -6.1765
upperback -2.6287 4.08984 -2.23692
thorax -4.37548 2.18265 0.865882
lowerneck -11.134 -1.60245 -2.3035
upperneck 14.0197 -2.55465 4.93599
head 6.17736 -0.972177 1.72779
rclavicle -6.09772e-014 3.57812e-015
rhumerus -47.3243 -0.616142 -90.1975
rradius 40.2214
rwrist -10.7199
rhand -26.1194 -39.2289
rfingers 7.12502
rthumb 0.430432 -69.2082
lclavicle -6.09772e-014 3.57812e-015
lhumerus -45.7454 36.5728 52.6326
lradius 10.3459
lwrist -39.1913
lhand -24.1249 -16.2544
lfingers 7.12502
lthumb 2.35675 13.7123
rfemur -19.1706 4.18672 17.3831
rtibia 70.5146
rfoot -4.56511 2.3625
rtoes 0.584995
lfemur -27.79 2.57505 -26.0191
ltibia 38.1128
lfoot -17.411 0.967064
ltoes -9.56677
52
root 9.43691 15.7002 -20.7182 6.64384 -8.54736 3.50633
lowerback 2.59171 3.30937 -6.33384
upperback -2.60323 4.04196 -2.24759
thorax -4.43466 2.16379 0.937151
lowerneck -10.8665 -1.4806 -1.95585
upperneck 14.2563 -2.38902 4.47949
head 6.19011 -0.910323 1.54144
rclavicle -4.01794e-014 4.77083e-015
rhumerus -48.1287 -2.05207 -88.9094
rradius 37.6905
rwrist -8.7497
rhand -25.7066 -39.3183
rfingers 7.12502
rthumb 0.829094 -69.2965
lclavicle -4.01794e-014 4.77083e-015
lhumerus -40.9545 29.6045 61.2468
lradius 12.1051
lwrist -28.6433
lhand -23.6244 -15.1991
lfingers 7.12502
lthumb 2.84013 14.7617
rfemur -20.8517 4.13553 17.2108
rtibia 70.5246
rfoot -6.71501 3.4415
rtoes -5.51643
lfemur -25.6509 2.2458 -26.452
ltibia 37.1807
lfoot -18.475 1.43923
ltoes -9.48554
